<svg width="40" height="40" viewBox="0 0 40 40" fill="none" xmlns="http://www.w3.org/2000/svg">
<path d="M36.25 20C36.25 16.7861 35.297 13.6443 33.5114 10.972C31.7258 8.29969 29.1879 6.21689 26.2186 4.98696C23.2493 3.75704 19.982 3.43524 16.8298 4.06225C13.6776 4.68926 10.7821 6.23692 8.50952 8.50952C6.23692 10.7821 4.68926 13.6776 4.06225 16.8298C3.43524 19.982 3.75704 23.2493 4.98696 26.2186C6.21689 29.1879 8.29969 31.7258 10.972 33.5114C13.6443 35.297 16.7861 36.25 20 36.25C24.3085 36.2459 28.4394 34.5325 31.4859 31.4859C34.5325 28.4394 36.2459 24.3085 36.25 20ZM21.25 33.6875V23.75H25C25.3315 23.75 25.6495 23.6183 25.8839 23.3839C26.1183 23.1495 26.25 22.8315 26.25 22.5C26.25 22.1685 26.1183 21.8505 25.8839 21.6161C25.6495 21.3817 25.3315 21.25 25 21.25H21.25V17.5C21.25 16.837 21.5134 16.2011 21.9822 15.7322C22.4511 15.2634 23.087 15 23.75 15H26.25C26.5815 15 26.8995 14.8683 27.1339 14.6339C27.3683 14.3995 27.5 14.0815 27.5 13.75C27.5 13.4185 27.3683 13.1005 27.1339 12.8661C26.8995 12.6317 26.5815 12.5 26.25 12.5H23.75C22.4252 12.5041 21.1558 13.0322 20.219 13.969C19.2822 14.9058 18.7541 16.1752 18.75 17.5V21.25H15C14.6685 21.25 14.3505 21.3817 14.1161 21.6161C13.8817 21.8505 13.75 22.1685 13.75 22.5C13.75 22.8315 13.8817 23.1495 14.1161 23.3839C14.3505 23.6183 14.6685 23.75 15 23.75H18.75V33.6875C15.2262 33.3658 11.9621 31.6981 9.63663 29.0312C7.31112 26.3643 6.10324 22.9035 6.26425 19.3688C6.42525 15.834 7.94274 12.4974 10.5011 10.053C13.0594 7.60854 16.4616 6.24444 20 6.24444C23.5384 6.24444 26.9406 7.60854 29.499 10.053C32.0573 12.4974 33.5748 15.834 33.7358 19.3688C33.8968 22.9035 32.6889 26.3643 30.3634 29.0312C28.0379 31.6981 24.7738 33.3658 21.25 33.6875Z" fill="white"/>
</svg>
