<svg width="40" height="40" viewBox="0 0 40 40" fill="none" xmlns="http://www.w3.org/2000/svg">
<path d="M20 12.5C18.5166 12.5 17.0666 12.9399 15.8332 13.764C14.5999 14.5881 13.6386 15.7594 13.0709 17.1299C12.5032 18.5003 12.3547 20.0083 12.6441 21.4632C12.9335 22.918 13.6478 24.2544 14.6967 25.3033C15.7456 26.3522 17.082 27.0665 18.5368 27.3559C19.9917 27.6453 21.4997 27.4968 22.8701 26.9291C24.2406 26.3614 25.4119 25.4001 26.236 24.1668C27.0601 22.9334 27.5 21.4834 27.5 20C27.5 18.0109 26.7098 16.1032 25.3033 14.6967C23.8968 13.2902 21.9891 12.5 20 12.5ZM20 25C19.0111 25 18.0444 24.7068 17.2221 24.1573C16.3999 23.6079 15.759 22.827 15.3806 21.9134C15.0022 20.9998 14.9031 19.9945 15.0961 19.0245C15.289 18.0546 15.7652 17.1637 16.4645 16.4645C17.1637 15.7652 18.0546 15.289 19.0245 15.0961C19.9945 14.9031 20.9998 15.0022 21.9134 15.3806C22.827 15.759 23.6079 16.3999 24.1573 17.2221C24.7068 18.0444 25 19.0111 25 20C24.9959 21.3248 24.4678 22.5942 23.531 23.531C22.5942 24.4678 21.3248 24.9959 20 25ZM26.875 4.375H13.125C10.8044 4.375 8.57876 5.29687 6.93782 6.93782C5.29687 8.57876 4.375 10.8044 4.375 13.125V26.875C4.375 29.1956 5.29687 31.4212 6.93782 33.0622C8.57876 34.7031 10.8044 35.625 13.125 35.625H26.875C29.1956 35.625 31.4212 34.7031 33.0622 33.0622C34.7031 31.4212 35.625 29.1956 35.625 26.875V13.125C35.625 10.8044 34.7031 8.57876 33.0622 6.93782C31.4212 5.29687 29.1956 4.375 26.875 4.375ZM33.125 26.875C33.125 27.6958 32.9633 28.5085 32.6492 29.2668C32.3352 30.0251 31.8748 30.7141 31.2944 31.2944C30.7141 31.8748 30.0251 32.3352 29.2668 32.6492C28.5085 32.9633 27.6958 33.125 26.875 33.125H13.125C12.3042 33.125 11.4915 32.9633 10.7332 32.6492C9.97494 32.3352 9.28595 31.8748 8.70558 31.2944C8.12522 30.7141 7.66484 30.0251 7.35075 29.2668C7.03666 28.5085 6.875 27.6958 6.875 26.875V13.125C6.875 11.4674 7.53348 9.87769 8.70558 8.70558C9.87769 7.53348 11.4674 6.875 13.125 6.875H26.875C27.6958 6.875 28.5085 7.03666 29.2668 7.35075C30.0251 7.66484 30.7141 8.12522 31.2944 8.70558C31.8748 9.28595 32.3352 9.97494 32.6492 10.7332C32.9633 11.4915 33.125 12.3042 33.125 13.125V26.875ZM30 11.875C30 12.2458 29.89 12.6084 29.684 12.9167C29.478 13.225 29.1851 13.4654 28.8425 13.6073C28.4999 13.7492 28.1229 13.7863 27.7592 13.714C27.3955 13.6416 27.0614 13.463 26.7992 13.2008C26.537 12.9386 26.3584 12.6045 26.286 12.2408C26.2137 11.8771 26.2508 11.5001 26.3927 11.1575C26.5346 10.8149 26.775 10.522 27.0833 10.316C27.3916 10.11 27.7542 10 28.125 10C28.6223 10 29.0992 10.1975 29.4508 10.5492C29.8025 10.9008 30 11.3777 30 11.875Z" fill="white"/>
</svg>
