<svg width="40" height="40" viewBox="0 0 40 40" fill="none" xmlns="http://www.w3.org/2000/svg">
<path d="M25.6875 18.9531L18.1875 13.9531C17.9977 13.8325 17.7798 13.7633 17.5551 13.7524C17.3305 13.7414 17.1069 13.7891 16.9062 13.8906C16.7064 13.9985 16.5397 14.1588 16.4241 14.3542C16.3085 14.5497 16.2483 14.7729 16.25 15V25C16.2483 25.2271 16.3085 25.4503 16.4241 25.6458C16.5397 25.8413 16.7064 26.0015 16.9062 26.1094C17.0906 26.2017 17.2939 26.2498 17.5 26.25C17.7436 26.2474 17.9816 26.1771 18.1875 26.0469L25.6875 21.0469C25.8616 20.9333 26.0046 20.7781 26.1036 20.5953C26.2026 20.4125 26.2545 20.2079 26.2545 20C26.2545 19.7921 26.2026 19.5875 26.1036 19.4047C26.0046 19.2219 25.8616 19.0667 25.6875 18.9531ZM18.75 22.6719V17.3281L22.75 20L18.75 22.6719ZM36.6094 10.9063C36.4658 10.3302 36.1846 9.79755 35.79 9.35398C35.3954 8.9104 34.8992 8.56912 34.3438 8.35938C29 6.29688 20.4688 6.3125 20 6.3125C19.5312 6.3125 11 6.29688 5.65625 8.35938C5.10084 8.56912 4.60458 8.9104 4.20998 9.35398C3.81539 9.79755 3.53424 10.3302 3.39063 10.9063C2.98438 12.4531 2.5 15.2969 2.5 20C2.5 24.7031 2.98438 27.5469 3.39063 29.0938C3.53424 29.6698 3.81539 30.2025 4.20998 30.646C4.60458 31.0896 5.10084 31.4309 5.65625 31.6406C10.7812 33.625 18.8125 33.6875 19.8906 33.6875H20.1094C21.1875 33.6875 29.2188 33.625 34.3438 31.6406C34.8992 31.4309 35.3954 31.0896 35.79 30.646C36.1846 30.2025 36.4658 29.6698 36.6094 29.0938C37.0156 27.5469 37.5 24.7031 37.5 20C37.5 15.2969 37.0156 12.4531 36.6094 10.9063ZM34.1875 28.4688C34.1413 28.6578 34.0506 28.8331 33.9228 28.9799C33.7951 29.1266 33.634 29.2407 33.4531 29.3125C28.5 31.2188 20.0938 31.1875 20 31.1875H19.9844C19.9062 31.1875 11.5 31.2188 6.54688 29.3125C6.36599 29.2407 6.20494 29.1266 6.07717 28.9799C5.94941 28.8331 5.85865 28.6578 5.8125 28.4688C5.4375 27.0469 5 24.4375 5 20C5 15.5625 5.4375 12.9531 5.8125 11.5313C5.85865 11.3422 5.94941 11.1669 6.07717 11.0202C6.20494 10.8734 6.36599 10.7593 6.54688 10.6875C11.3125 8.85938 19.3125 8.8125 19.9688 8.8125H20C20.0938 8.8125 28.5 8.78125 33.4531 10.6875C33.634 10.7593 33.7951 10.8734 33.9228 11.0202C34.0506 11.1669 34.1413 11.3422 34.1875 11.5313C34.5625 12.9531 35 15.5625 35 20C35 24.4375 34.5625 27.0469 34.1875 28.4688Z" fill="white"/>
</svg>
